name rise45.9887peak57.8056fall74.9286.mot
datacolumns 19
datarows 24
range 6.90332000000000 6.94164300000000
endheader
time	ground_force1_vx	ground_force1_vy	ground_force1_vz	ground_force1_px	ground_force1_py	ground_force1_pz	ground_force2_vx	ground_force2_vy	ground_force2_vz	ground_force2_px	ground_force2_py	ground_force2_pz	ground_torque1_x	ground_torque1_y	ground_torque1_z	ground_torque2_x	ground_torque2_y	ground_torque2_z	
6.90332000000000	68.24266000000000	770.32274900000004	46.88078500000000	0.35935500000000	0.00000000000000	0.07790100000000	0.00000000000000	0.00000000000000	0.00000000000000	0.00000000000000	0.00000000000000	0.00000000000000	0.00000000000000	23.40734700000000	0.00000000000000	0.00000000000000	0.00000000000000	0.00000000000000	
6.90498200000000	67.55945500000000	772.69113300000004	46.92606100000000	0.35876200000000	0.00000000000000	0.07793700000000	0.00000000000000	0.00000000000000	0.00000000000000	0.00000000000000	0.00000000000000	0.00000000000000	0.00000000000000	23.44071300000000	0.00000000000000	0.00000000000000	0.00000000000000	0.00000000000000	
6.90664300000000	66.87500100000000	774.91474800000003	46.97288800000000	0.35818800000000	0.00000000000000	0.07797400000000	0.00000000000000	0.00000000000000	0.00000000000000	0.00000000000000	0.00000000000000	0.00000000000000	0.00000000000000	23.47678000000000	0.00000000000000	0.00000000000000	0.00000000000000	0.00000000000000	
6.90831100000000	66.18965100000000	776.99269200000003	47.02104600000000	0.35763100000000	0.00000000000000	0.07801200000000	0.00000000000000	0.00000000000000	0.00000000000000	0.00000000000000	0.00000000000000	0.00000000000000	0.00000000000000	23.51530100000000	0.00000000000000	0.00000000000000	0.00000000000000	0.00000000000000	
6.90998800000000	65.50371199999999	778.92430000000002	47.07025200000000	0.35708800000000	0.00000000000000	0.07805200000000	0.00000000000000	0.00000000000000	0.00000000000000	0.00000000000000	0.00000000000000	0.00000000000000	0.00000000000000	23.55598700000000	0.00000000000000	0.00000000000000	0.00000000000000	0.00000000000000	
6.91164500000000	64.81744900000000	780.70915100000002	47.12016600000000	0.35655800000000	0.00000000000000	0.07809300000000	0.00000000000000	0.00000000000000	0.00000000000000	0.00000000000000	0.00000000000000	0.00000000000000	0.00000000000000	23.59851000000000	0.00000000000000	0.00000000000000	0.00000000000000	0.00000000000000	
6.91330800000000	64.13108400000000	782.34707500000002	47.17039200000000	0.35603800000000	0.00000000000000	0.07813600000000	0.00000000000000	0.00000000000000	0.00000000000000	0.00000000000000	0.00000000000000	0.00000000000000	0.00000000000000	23.64250300000000	0.00000000000000	0.00000000000000	0.00000000000000	0.00000000000000	
6.91498300000000	63.44480300000000	783.83815900000002	47.22048900000000	0.35552700000000	0.00000000000000	0.07818000000000	0.00000000000000	0.00000000000000	0.00000000000000	0.00000000000000	0.00000000000000	0.00000000000000	0.00000000000000	23.68756900000000	0.00000000000000	0.00000000000000	0.00000000000000	0.00000000000000	
6.91664400000000	62.75875800000000	785.18275000000006	47.26997300000000	0.35502100000000	0.00000000000000	0.07822700000000	0.00000000000000	0.00000000000000	0.00000000000000	0.00000000000000	0.00000000000000	0.00000000000000	0.00000000000000	23.73328200000000	0.00000000000000	0.00000000000000	0.00000000000000	0.00000000000000	
6.91831000000000	62.07307200000000	786.38146099999994	47.31832400000000	0.35452000000000	0.00000000000000	0.07827500000000	0.00000000000000	0.00000000000000	0.00000000000000	0.00000000000000	0.00000000000000	0.00000000000000	0.00000000000000	23.77919100000000	0.00000000000000	0.00000000000000	0.00000000000000	0.00000000000000	
6.91998700000000	61.38784400000000	787.43516999999997	47.36499300000000	0.35402100000000	0.00000000000000	0.07832600000000	0.00000000000000	0.00000000000000	0.00000000000000	0.00000000000000	0.00000000000000	0.00000000000000	0.00000000000000	23.82482400000000	0.00000000000000	0.00000000000000	0.00000000000000	0.00000000000000	
6.92164600000000	60.70314700000000	788.34502099999997	47.40940900000000	0.35352100000000	0.00000000000000	0.07837900000000	0.00000000000000	0.00000000000000	0.00000000000000	0.00000000000000	0.00000000000000	0.00000000000000	0.00000000000000	23.86969500000000	0.00000000000000	0.00000000000000	0.00000000000000	0.00000000000000	
6.92331100000000	60.01903800000000	789.11242500000003	47.45098000000000	0.35301800000000	0.00000000000000	0.07843400000000	0.00000000000000	0.00000000000000	0.00000000000000	0.00000000000000	0.00000000000000	0.00000000000000	0.00000000000000	23.91330500000000	0.00000000000000	0.00000000000000	0.00000000000000	0.00000000000000	
6.92501300000000	59.33556000000000	789.73905800000000	47.48910800000000	0.35251100000000	0.00000000000000	0.07849100000000	0.00000000000000	0.00000000000000	0.00000000000000	0.00000000000000	0.00000000000000	0.00000000000000	0.00000000000000	23.95514900000000	0.00000000000000	0.00000000000000	0.00000000000000	0.00000000000000	
6.92663900000000	58.65274200000000	790.22685799999999	47.52318600000000	0.35199600000000	0.00000000000000	0.07855100000000	0.00000000000000	0.00000000000000	0.00000000000000	0.00000000000000	0.00000000000000	0.00000000000000	0.00000000000000	23.99471900000000	0.00000000000000	0.00000000000000	0.00000000000000	0.00000000000000	
6.92831000000000	57.97060700000000	790.57801900000004	47.55261100000000	0.35147200000000	0.00000000000000	0.07861400000000	0.00000000000000	0.00000000000000	0.00000000000000	0.00000000000000	0.00000000000000	0.00000000000000	0.00000000000000	24.03150500000000	0.00000000000000	0.00000000000000	0.00000000000000	0.00000000000000	
6.92998500000000	57.28917300000000	790.79498999999998	47.57678600000000	0.35093700000000	0.00000000000000	0.07867900000000	0.00000000000000	0.00000000000000	0.00000000000000	0.00000000000000	0.00000000000000	0.00000000000000	0.00000000000000	24.06500700000000	0.00000000000000	0.00000000000000	0.00000000000000	0.00000000000000	
6.93164000000000	56.60845800000000	790.88046299999996	47.59512900000000	0.35038800000000	0.00000000000000	0.07874700000000	0.00000000000000	0.00000000000000	0.00000000000000	0.00000000000000	0.00000000000000	0.00000000000000	0.00000000000000	24.09473100000000	0.00000000000000	0.00000000000000	0.00000000000000	0.00000000000000	
6.93330700000000	55.92847900000000	790.83737399999995	47.60707200000000	0.34982300000000	0.00000000000000	0.07881800000000	0.00000000000000	0.00000000000000	0.00000000000000	0.00000000000000	0.00000000000000	0.00000000000000	0.00000000000000	24.12019900000000	0.00000000000000	0.00000000000000	0.00000000000000	0.00000000000000	
6.93497100000000	55.24925900000000	790.66888400000005	47.61207600000000	0.34924000000000	0.00000000000000	0.07889200000000	0.00000000000000	0.00000000000000	0.00000000000000	0.00000000000000	0.00000000000000	0.00000000000000	0.00000000000000	24.14094600000000	0.00000000000000	0.00000000000000	0.00000000000000	0.00000000000000	
6.93664500000000	54.57082800000000	790.37837900000000	47.60962700000000	0.34863700000000	0.00000000000000	0.07897000000000	0.00000000000000	0.00000000000000	0.00000000000000	0.00000000000000	0.00000000000000	0.00000000000000	0.00000000000000	24.15653300000000	0.00000000000000	0.00000000000000	0.00000000000000	0.00000000000000	
6.93832700000000	53.89322600000000	789.96945500000004	47.59924500000000	0.34801200000000	0.00000000000000	0.07905000000000	0.00000000000000	0.00000000000000	0.00000000000000	0.00000000000000	0.00000000000000	0.00000000000000	0.00000000000000	24.16654000000000	0.00000000000000	0.00000000000000	0.00000000000000	0.00000000000000	
6.93998700000000	53.21650400000000	789.44590900000003	47.58048800000000	0.34736400000000	0.00000000000000	0.07913400000000	0.00000000000000	0.00000000000000	0.00000000000000	0.00000000000000	0.00000000000000	0.00000000000000	0.00000000000000	24.17057700000000	0.00000000000000	0.00000000000000	0.00000000000000	0.00000000000000	
6.94164300000000	52.54072500000000	788.81172500000002	47.55295400000000	0.34669100000000	0.00000000000000	0.07922100000000	0.00000000000000	0.00000000000000	0.00000000000000	0.00000000000000	0.00000000000000	0.00000000000000	0.00000000000000	24.16828400000000	0.00000000000000	0.00000000000000	0.00000000000000	0.00000000000000	
